<?xml version="1.0" standalone="no"?>
<!DOCTYPE svg PUBLIC "-//W3C//DTD SVG 20010904//EN"
 "http://www.w3.org/TR/2001/REC-SVG-20010904/DTD/svg10.dtd">
<svg version="1.0" xmlns="http://www.w3.org/2000/svg"
 width="561.000000pt" height="561.000000pt" viewBox="0 0 561.000000 561.000000"
 preserveAspectRatio="xMidYMid meet">
<metadata>
Created by potrace 1.11, written by Peter Selinger 2001-2013
</metadata>
<g transform="translate(0.000000,561.000000) scale(0.100000,-0.100000)"
fill="#000000" stroke="none">
<path d="M2822 4938 c-13 -13 2 -48 21 -48 7 0 59 -114 116 -253 58 -138 112
-270 122 -292 10 -22 59 -139 109 -260 51 -121 100 -238 110 -259 l18 -40 -40
-25 c-28 -19 -47 -43 -66 -83 l-27 -58 -105 -1 c-303 -2 -756 -20 -880 -35
-82 -9 -148 -61 -196 -154 -16 -31 -18 -63 -19 -295 0 -229 7 -396 19 -460 2
-11 7 -40 10 -65 3 -25 8 -54 10 -65 18 -96 18 -99 -13 -135 -28 -34 -30 -35
-62 -21 -19 7 -42 14 -51 14 -9 1 -16 5 -15 9 1 4 -8 14 -20 21 -12 6 -65 38
-118 71 -53 32 -121 69 -153 81 -53 21 -102 39 -342 130 -112 43 -168 51 -239
36 -38 -8 -70 -8 -121 0 -37 7 -84 9 -103 5 -43 -8 -129 -64 -120 -78 3 -7 1
-8 -5 -4 -6 4 -39 -16 -74 -44 -105 -86 -246 -144 -428 -179 -93 -18 -108 -23
-133 -52 -24 -26 -28 -37 -22 -66 16 -87 40 -99 215 -106 89 -4 181 -15 240
-28 52 -11 106 -23 119 -25 14 -3 28 -7 33 -10 11 -7 149 -6 200 1 20 2 74 11
119 19 130 23 236 12 377 -38 101 -35 180 -75 250 -123 34 -25 67 -41 74 -37
6 4 8 3 5 -3 -4 -6 18 -27 47 -47 l54 -37 -25 -57 c-24 -57 -38 -77 -51 -77
-77 -6 -191 -42 -223 -71 -39 -36 -13 -74 50 -74 17 0 53 9 81 19 l51 19 -32
-36 c-43 -49 -70 -111 -58 -133 7 -14 15 -16 40 -9 29 8 45 24 102 94 l24 29
6 -69 c7 -89 14 -106 41 -102 29 4 45 57 42 137 l-3 65 28 -56 c41 -82 92
-113 101 -63 6 30 -37 129 -52 120 -6 -3 -7 1 -4 10 4 10 13 14 23 9 85 -35
147 -14 108 38 -10 13 -104 49 -159 61 -5 1 8 14 27 30 33 26 36 27 70 13 19
-8 35 -13 35 -10 0 2 12 -2 28 -10 92 -47 349 -77 491 -57 45 7 70 3 142 -18
101 -31 104 -14 -28 -158 l-93 -99 -99 -12 c-164 -19 -245 -56 -211 -97 12
-14 26 -16 80 -12 36 2 74 8 85 11 16 6 14 3 -5 -11 -116 -84 -144 -178 -45
-152 31 8 43 18 124 93 24 23 41 36 37 29 -11 -20 -9 -140 4 -163 17 -32 52
-22 72 20 16 33 27 89 28 138 0 21 3 20 41 -18 22 -22 46 -37 51 -34 7 4 8 2
4 -5 -11 -17 53 -42 76 -30 10 5 18 15 18 22 0 22 -51 88 -62 81 -7 -4 -8 -2
-4 5 4 6 3 18 -4 26 -9 11 1 14 64 14 84 0 136 20 136 50 0 33 -27 44 -106 44
l-74 0 37 22 c100 57 393 256 389 264 -3 5 1 8 10 7 9 0 21 6 27 15 17 26 -14
63 -64 78 l-44 13 319 159 c176 88 320 159 322 159 4 0 14 -47 19 -96 3 -27 8
-56 10 -64 2 -8 7 -29 10 -46 l5 -31 -99 -6 c-94 -7 -169 -25 -198 -48 -20
-18 -15 -44 11 -58 26 -14 67 -11 164 14 77 20 89 17 59 -15 -87 -93 -104
-222 -26 -191 51 20 139 136 123 164 -4 7 -3 8 1 4 5 -4 15 3 22 15 l12 23 1
-26 c0 -48 33 -131 66 -165 39 -42 79 -46 96 -9 13 28 -6 89 -47 150 -14 19
-23 35 -22 35 2 0 27 -12 57 -26 68 -33 110 -39 134 -21 37 27 -9 77 -99 107
l-40 13 50 12 c88 20 146 68 116 98 -19 19 -95 10 -169 -22 -40 -17 -71 -27
-68 -23 2 4 7 36 11 72 4 36 9 68 11 71 1 3 6 34 9 70 8 76 12 80 134 127 153
59 235 72 416 68 88 -2 170 -6 181 -9 12 -3 39 -8 59 -11 100 -16 354 -123
395 -166 3 -3 24 -20 47 -38 41 -32 143 -152 143 -168 0 -4 9 -27 20 -50 29
-59 57 -162 77 -279 30 -183 21 -722 -17 -923 -4 -23 -4 -44 0 -47 7 -4 28 39
76 153 8 17 21 48 29 66 29 66 72 221 88 316 28 163 32 220 32 405 -1 150 -5
199 -25 295 -46 222 -89 307 -220 440 -94 94 -104 103 -199 167 -242 163 -458
215 -908 216 -171 0 -193 2 -189 16 4 16 11 98 21 276 3 50 7 117 10 150 11
140 9 250 -7 280 -47 89 -162 136 -363 148 l-50 3 -22 64 c-38 111 -113 158
-238 147 -33 -3 -67 -8 -75 -11 -12 -4 -31 33 -84 162 -38 92 -78 187 -89 212
-10 25 -23 54 -27 65 -5 11 -20 47 -34 80 -21 51 -121 290 -213 512 -14 34
-22 66 -19 72 9 14 -11 51 -27 51 -7 0 -18 -5 -25 -12z m-2177 -2297 c3 -5 2
-12 -3 -15 -5 -3 -9 1 -9 9 0 17 3 19 12 6z m4249 -229 c3 -5 -1 -9 -9 -9 -8
0 -12 4 -9 9 3 4 7 8 9 8 2 0 6 -4 9 -8z m-4374 -37 c-7 -8 -17 -15 -23 -15
-6 0 -2 7 9 15 25 19 30 19 14 0z m4175 -5 c-3 -5 -12 -10 -18 -10 -7 0 -6 4
3 10 19 12 23 12 15 0z m-647 -45 c-3 -3 -9 2 -12 12 -6 14 -5 15 5 6 7 -7 10
-15 7 -18z m-804 7 c3 -5 -1 -9 -9 -9 -8 0 -12 4 -9 9 3 4 7 8 9 8 2 0 6 -4 9
-8z m-714 -322 c0 -5 -2 -10 -4 -10 -3 0 -8 5 -11 10 -3 6 -1 10 4 10 6 0 11
-4 11 -10z m1315 0 c3 -5 1 -10 -4 -10 -6 0 -11 5 -11 10 0 6 2 10 4 10 3 0 8
-4 11 -10z"/>
<path d="M3880 4695 c-10 -12 -10 -21 -1 -38 10 -19 0 -51 -74 -237 -174 -438
-245 -623 -241 -627 5 -5 36 63 36 78 0 5 4 17 10 27 5 9 48 116 95 237 47
121 92 234 99 250 8 17 19 48 26 70 7 22 16 45 19 50 4 6 18 37 31 70 13 33
31 68 42 78 22 22 22 22 2 41 -19 20 -28 20 -44 1z"/>
</g>
</svg>
